FFmpeg version SVN-r25716, Copyright (c) 2000-2010 the FFmpeg developers  built on Nov 10 2010 12:23:18 with gcc 4.1.2 20080704 (Red Hat 4.1.2-48)  configuration: --enable-libmp3lame --enable-shared --disable-mmx --arch=x86_64  libavutil     50.33. 0 / 50.33. 0  libavcore      0.12. 1 /  0.12. 1  libavcodec    52.94. 4 / 52.94. 4  libavformat   52.84. 0 / 52.84. 0  libavdevice   52. 2. 2 / 52. 2. 2  libavfilter    1.59. 0 /  1.59. 0  libswscale     0.12. 0 /  0.12. 0[mov,mp4,m4a,3gp,3g2,mj2 @ 0xa85e4c0] max_analyze_duration reachedSeems stream 0 codec frame rate differs from container frame rate: 600.00 (600/1) -> 12.00 (12/1)Input #0, mov,mp4,m4a,3gp,3g2,mj2, from '/RAID10/data/converted_video_files/11807.mov':  Duration: 00:00:05.50, bitrate: 1242 kb/s    Stream #0.0(eng): Video: svq1, yuv410p, 311x512, 1240 kb/s, 12 fps, 12 tbr, 600 tbn, 600 tbc[buffer @ 0xa8615d0] w:311 h:512 pixfmt:yuv410p[ffsink @ 0xa863b30] auto-inserting filter 'auto-inserted scaler 0' between the filter 'src' and the filter 'out'[scale @ 0xa863e50] w:311 h:512 fmt:yuv410p -> w:311 h:512 fmt:yuv420p flags:0x4Output #0, flv, to '/RAID10/data/converted_video_files/11807.flv':  Metadata:    encoder         : Lavf52.84.0    Stream #0.0(eng): Video: flv, yuv420p, 311x512, q=2-31, 600 kb/s, 1k tbn, 24 tbcStream mapping:  Stream #0.0 -> #0.0Press [q] to stop encodingframe=   59 fps=  0 q=6.2 size=     370kB time=4.87 bitrate= 621.1kbits/s    frame=   66 fps=  0 q=5.1 Lsize=     407kB time=5.46 bitrate= 611.3kbits/s    video:406kB audio:0kB global headers:0kB muxing overhead 0.304401%